<svg width="25" height="24" viewBox="0 0 25 24" fill="none" xmlns="http://www.w3.org/2000/svg">
<path fill-rule="evenodd" clip-rule="evenodd" d="M13.9728 2.75996L21.1782 10.4983C21.4367 10.7759 21.5804 11.1411 21.5804 11.5205V20.2178C21.5804 21.0463 20.9088 21.7178 20.0804 21.7178H5.66968C4.84125 21.7178 4.16968 21.0463 4.16968 20.2178V11.5205C4.16968 11.1411 4.31339 10.7759 4.57189 10.4983L11.7772 2.75996C12.3418 2.15367 13.2909 2.11982 13.8972 2.68435C13.9233 2.70865 13.9485 2.73387 13.9728 2.75996Z" fill="#0C7800" stroke="#0C7800" stroke-width="2" stroke-linecap="round" stroke-linejoin="round"/>
<path d="M12.875 16.1689C14.2212 16.1689 15.3125 15.0776 15.3125 13.7314C15.3125 12.3852 14.2212 11.2939 12.875 11.2939C11.5288 11.2939 10.4375 12.3852 10.4375 13.7314C10.4375 15.0776 11.5288 16.1689 12.875 16.1689Z" fill="white" stroke="white" stroke-width="2" stroke-linecap="round" stroke-linejoin="round"/>
</svg>
