<svg width="24" height="24" viewBox="0 0 24 24" fill="none" xmlns="http://www.w3.org/2000/svg">
<path fill-rule="evenodd" clip-rule="evenodd" d="M9.08896 3.75024H19.411C20.236 3.75024 20.9061 4.41641 20.911 5.24135L20.9911 18.7414C20.996 19.5698 20.3284 20.2453 19.5 20.2502C19.497 20.2502 19.494 20.2502 19.4911 20.2502H7.5L7.58899 5.24135C7.59388 4.41641 8.264 3.75024 9.08896 3.75024Z" stroke="#767676" stroke-width="2" stroke-linecap="round" stroke-linejoin="round"/>
<path fill-rule="evenodd" clip-rule="evenodd" d="M4.5762 13.5002H7.40213L7.49995 20.2502H4.52185C3.69342 20.2502 3.02185 19.5787 3.02185 18.7502C3.02185 18.743 3.0219 18.7358 3.02201 18.7285L3.07636 14.9785C3.08824 14.1586 3.75625 13.5002 4.5762 13.5002Z" stroke="#767676" stroke-width="2" stroke-linecap="round" stroke-linejoin="round"/>
<path d="M10.5 8.25024H18" stroke="#767676" stroke-width="2" stroke-linecap="round" stroke-linejoin="round"/>
<path d="M10.5 12.0002H18" stroke="#767676" stroke-width="2" stroke-linecap="round" stroke-linejoin="round"/>
<path d="M10.5 15.7502H18" stroke="#767676" stroke-width="2" stroke-linecap="round" stroke-linejoin="round"/>
</svg>
